<svg width="448" height="127" viewBox="0 0 448 127" fill="none" xmlns="http://www.w3.org/2000/svg">
<mask id="mask0_4404_471" style="mask-type:alpha" maskUnits="userSpaceOnUse" x="6" y="17" width="91" height="91">
<circle cx="51.6797" cy="62.7152" r="45" fill="#F3C11B"/>
</mask>
<g mask="url(#mask0_4404_471)">
<rect x="53.3379" y="15.7152" width="4.99832" height="47.2133" transform="rotate(7 53.3379 15.7152)" fill="#82204A"/>
<rect x="47.5859" y="62.5764" width="4.99832" height="47.2133" transform="rotate(7 47.5859 62.5764)" fill="#558C8C"/>
<rect x="32.3281" y="107.996" width="4.99923" height="47.4619" transform="rotate(-154.25 32.3281 107.996)" fill="#E8DB7D"/>
<rect x="52.9473" y="65.2455" width="4.99923" height="47.4619" transform="rotate(-154.25 52.9473 65.2455)" fill="#D0DCE1"/>
<rect x="82.2246" y="29.1849" width="4.99919" height="47.4619" transform="rotate(44.5 82.2246 29.1849)" fill="#558C8C"/>
<rect x="48.957" y="63.0387" width="4.99919" height="47.4619" transform="rotate(44.5 48.957 63.0387)" fill="#82204A"/>
<rect x="91.8926" y="39.9752" width="4.99923" height="47.4619" transform="rotate(63.25 91.8926 39.9752)" fill="#E8DB7D"/>
<rect x="49.5098" y="61.3389" width="4.99923" height="47.4619" transform="rotate(63.25 49.5098 61.3389)" fill="#D0DCE1"/>
<rect x="97.1875" y="55.1217" width="4.99832" height="47.2133" transform="rotate(82 97.1875 55.1217)" fill="#82204A"/>
<rect x="50.4336" y="61.6941" width="4.99832" height="47.2133" transform="rotate(82 50.4336 61.6941)" fill="#558C8C"/>
</g>
<path d="M53.3898 111.685C26.1275 112.637 3.20193 91.5792 1.7202 64.4634C1.69007 63.9119 2.12276 63.4452 2.67471 63.4259L5.67288 63.3212C6.22483 63.302 6.68687 63.7365 6.71819 64.2879C8.10282 88.6707 28.7472 108.544 53.2502 107.688C78.0879 106.82 100.483 84.8784 99.6156 60.0407L101.614 59.9709C102.578 87.5683 80.9872 110.722 53.3898 111.685Z" fill="url(#paint0_linear_4404_471)"/>
<path d="M49.9695 13.745C77.2319 12.793 100.157 33.8512 101.639 60.967C101.669 61.5185 101.237 61.9852 100.685 62.0045L97.6865 62.1092C97.1345 62.1285 96.6725 61.6939 96.6412 61.1425C95.2566 36.7597 74.6122 16.8869 50.1091 17.7426C25.2715 18.6099 2.87641 40.5521 3.74376 65.3897L1.74497 65.4595C0.781252 37.8621 22.3721 14.7087 49.9695 13.745Z" fill="url(#paint1_linear_4404_471)"/>
<path d="M114.12 92L126.696 35.264H134.472L146.856 92H140.328L137.256 78.848H123.336L120.456 92H114.12ZM123.528 75.488H137.16L130.44 42.656L123.528 75.488ZM159.153 92V35.264H177.009C180.209 35.264 182.801 36.032 184.785 37.568C186.769 39.04 187.761 41.408 187.761 44.672V53.888C187.761 57.152 186.769 59.68 184.785 61.472C182.865 63.264 180.241 64.224 176.913 64.352V64.256C178.961 64.384 180.497 65.12 181.521 66.464C182.545 67.744 183.441 69.76 184.209 72.512L190.065 92H183.345L178.161 72.896C177.649 71.104 176.977 69.504 176.145 68.096C175.377 66.624 174.097 65.888 172.305 65.888H165.393V92H159.153ZM165.393 61.568H173.841C176.785 61.568 178.833 60.896 179.985 59.552C181.201 58.144 181.809 56.096 181.809 53.408V45.728C181.809 43.36 181.233 41.632 180.081 40.544C178.993 39.392 177.297 38.816 174.993 38.816H165.393V61.568ZM203.703 92V35.264H228.183V39.584H209.943V59.936H224.535V64.736H209.943V87.68H228.183V92H203.703ZM254.755 93.152C251.939 93.152 249.443 92.832 247.267 92.192C245.155 91.552 243.459 90.24 242.179 88.256C240.963 86.208 240.355 83.136 240.355 79.04V47.072C240.355 43.488 240.963 40.8 242.179 39.008C243.459 37.216 245.187 36.032 247.363 35.456C249.603 34.816 252.099 34.496 254.851 34.496C257.667 34.496 260.131 34.816 262.243 35.456C264.355 36.096 266.019 37.312 267.235 39.104C268.451 40.896 269.059 43.552 269.059 47.072V57.056H263.011V46.976C263.011 44.48 262.659 42.624 261.955 41.408C261.251 40.128 260.259 39.296 258.979 38.912C257.763 38.528 256.355 38.336 254.755 38.336C253.155 38.336 251.715 38.528 250.435 38.912C249.219 39.296 248.259 40.128 247.555 41.408C246.915 42.624 246.595 44.48 246.595 46.976V80.672C246.595 83.232 246.915 85.152 247.555 86.432C248.259 87.648 249.219 88.448 250.435 88.832C251.715 89.216 253.155 89.408 254.755 89.408C256.419 89.408 257.859 89.216 259.075 88.832C260.291 88.448 261.251 87.648 261.955 86.432C262.659 85.152 263.011 83.232 263.011 80.672V72.128H269.059V78.944C269.059 83.104 268.451 86.208 267.235 88.256C266.019 90.24 264.355 91.552 262.243 92.192C260.131 92.832 257.635 93.152 254.755 93.152ZM279.851 92L292.427 35.264H300.203L312.587 92H306.059L302.987 78.848H289.067L286.187 92H279.851ZM289.259 75.488H302.891L296.171 42.656L289.259 75.488ZM347.403 92V35.264H364.971C368.107 35.264 370.667 36.032 372.651 37.568C374.635 39.04 375.627 41.408 375.627 44.672V51.584C375.627 53.376 375.371 54.976 374.859 56.384C374.347 57.728 373.643 58.816 372.747 59.648C371.851 60.544 370.763 61.152 369.483 61.472C368.267 61.728 367.243 61.888 366.411 61.952V61.76C367.691 61.76 368.907 61.92 370.059 62.24C371.275 62.496 372.299 63.04 373.131 63.872C374.091 64.768 374.827 65.92 375.339 67.328C375.915 68.672 376.203 70.272 376.203 72.128V80.384C376.203 83.584 375.691 86.016 374.667 87.68C373.643 89.344 372.203 90.496 370.347 91.136C368.555 91.712 366.411 92 363.915 92H347.403ZM353.451 88.544H362.859C364.331 88.544 365.611 88.352 366.699 87.968C367.787 87.52 368.619 86.688 369.195 85.472C369.835 84.192 370.155 82.336 370.155 79.904V72.128C370.155 69.056 369.355 67.04 367.755 66.08C366.219 65.056 364.299 64.544 361.995 64.544H353.451V88.544ZM353.451 60.512H361.803C364.363 60.512 366.315 59.808 367.659 58.4C369.067 56.992 369.771 54.944 369.771 52.256V45.728C369.771 43.36 369.131 41.632 367.851 40.544C366.635 39.392 365.131 38.816 363.339 38.816H353.451V60.512ZM391.765 92V35.264H397.813V92H391.765ZM427.907 93.152C425.155 93.152 422.723 92.832 420.611 92.192C418.499 91.552 416.803 90.24 415.523 88.256C414.307 86.208 413.699 83.136 413.699 79.04V47.072C413.699 43.488 414.307 40.8 415.523 39.008C416.803 37.216 418.531 36.032 420.707 35.456C422.883 34.816 425.347 34.496 428.099 34.496C430.851 34.496 433.283 34.816 435.395 35.456C437.571 36.096 439.267 37.312 440.483 39.104C441.763 40.896 442.403 43.552 442.403 47.072V78.944C442.403 83.104 441.763 86.208 440.483 88.256C439.267 90.24 437.571 91.552 435.395 92.192C433.283 92.832 430.787 93.152 427.907 93.152ZM428.003 89.408C429.667 89.408 431.107 89.216 432.323 88.832C433.603 88.384 434.595 87.552 435.299 86.336C436.003 85.056 436.355 83.168 436.355 80.672V47.072C436.355 44.576 436.003 42.72 435.299 41.504C434.595 40.224 433.603 39.392 432.323 39.008C431.043 38.56 429.603 38.336 428.003 38.336C426.339 38.336 424.867 38.56 423.587 39.008C422.371 39.392 421.411 40.224 420.707 41.504C420.003 42.72 419.651 44.576 419.651 47.072V80.672C419.651 83.168 420.003 85.056 420.707 86.336C421.411 87.552 422.371 88.384 423.587 88.832C424.867 89.216 426.339 89.408 428.003 89.408Z" fill="black"/>
<defs>
<linearGradient id="paint0_linear_4404_471" x1="97.887" y1="59.0484" x2="17.4051" y2="96.9689" gradientUnits="userSpaceOnUse">
<stop offset="0.7" stop-opacity="0"/>
<stop offset="0.8"/>
</linearGradient>
<linearGradient id="paint1_linear_4404_471" x1="5.47241" y1="66.382" x2="85.9543" y2="28.4616" gradientUnits="userSpaceOnUse">
<stop offset="0.7" stop-opacity="0"/>
<stop offset="0.8"/>
</linearGradient>
</defs>
</svg>
